<?xml version="1.0" encoding="UTF-8" standalone="no"?>
<!-- Created with Inkscape (http://www.inkscape.org/) -->

<svg
   width="30"
   height="30"
   id="svg3330"
   version="1.1"
   inkscape:version="1.2.2 (b0a8486541, 2022-12-01)"
   sodipodi:docname="complib.svg"
   xmlns:inkscape="http://www.inkscape.org/namespaces/inkscape"
   xmlns:sodipodi="http://sodipodi.sourceforge.net/DTD/sodipodi-0.dtd"
   xmlns="http://www.w3.org/2000/svg"
   xmlns:svg="http://www.w3.org/2000/svg"
   xmlns:rdf="http://www.w3.org/1999/02/22-rdf-syntax-ns#"
   xmlns:cc="http://creativecommons.org/ns#"
   xmlns:dc="http://purl.org/dc/elements/1.1/">
  <defs
     id="defs3332">
    <linearGradient
       gradientUnits="userSpaceOnUse"
       id="linearGradient1022-8-8-3-0-06-59"
       x2="0"
       y1="3.0069399"
       y2="11.02436">
      <stop
         offset="0"
         id="stop3001-0-9-4-9-02" />
      <stop
         offset="1"
         stop-color="#363636"
         id="stop3003-5-6-6-5-70" />
    </linearGradient>
  </defs>
  <sodipodi:namedview
     id="base"
     pagecolor="#ffffff"
     bordercolor="#666666"
     borderopacity="1.0"
     inkscape:pageopacity="0.0"
     inkscape:pageshadow="2"
     inkscape:zoom="5.6568543"
     inkscape:cx="-39.951533"
     inkscape:cy="5.8336309"
     inkscape:document-units="px"
     inkscape:current-layer="capa1"
     showgrid="true"
     inkscape:showpageshadow="false"
     inkscape:window-width="1920"
     inkscape:window-height="1024"
     inkscape:window-x="0"
     inkscape:window-y="0"
     inkscape:window-maximized="1"
     inkscape:snap-bbox="true"
     inkscape:pagecheckerboard="0"
     inkscape:deskcolor="#d1d1d1">
    <inkscape:grid
       type="xygrid"
       id="grid2990"
       empspacing="5"
       visible="true"
       enabled="true"
       snapvisiblegridlinesonly="true" />
  </sodipodi:namedview>
  <metadata
     id="metadata3335">
    <rdf:RDF>
      <cc:Work
         rdf:about="">
        <dc:format>image/svg+xml</dc:format>
        <dc:type
           rdf:resource="http://purl.org/dc/dcmitype/StillImage" />
      </cc:Work>
    </rdf:RDF>
  </metadata>
  <g
     inkscape:label="Capa 1"
     inkscape:groupmode="layer"
     id="capa1"
     transform="translate(0,-1028.3622)">
    <path
       style="color:#000000;display:inline;overflow:visible;visibility:visible;opacity:0.8;fill:#000000;fill-opacity:1;fill-rule:nonzero;stroke:none;stroke-width:1.3125;marker:none;enable-background:accumulate"
       d="m 12.5,1029.3622 -2.625,2.625 v 14.4375 l 2.625,2.625 h 13.125 l 2.625,-2.625 v -14.4375 l -2.625,-2.625 z m 1.3125,2.625 h 10.5 l 1.3125,1.3125 v 11.8125 l -1.3125,1.3125 h -10.5 L 12.5,1045.1122 v -11.8125 z m -5.25,1.3125 -2.625,2.625 v 14.4375 l 2.625,2.625 h 13.125 l 2.625,-2.625 H 20.375 9.875 l -1.3125,-1.3125 v -11.8125 z m -3.9375,3.9375 -2.625,2.625 v 14.4375 l 2.625,2.625 H 17.75 l 2.625,-2.625 h -3.9375 -10.5 l -1.3125,-1.3125 v -11.8125 z"
       id="path3048"
       sodipodi:nodetypes="cccccccccccccccccccccccccccccccccccccccc" />
    <path
       style="opacity:0.8;fill:#000000;fill-opacity:1;stroke:none;stroke-width:0.168753;stroke-linejoin:round;stroke-dasharray:none;stroke-opacity:1"
       d="M 22.487228,1033.3156 H 15.73408 l -0.0022,1.6866 h -1.687493 v 1.6874 h 1.687532 v 1.6875 h -1.687532 v 1.6876 h 1.687532 v 1.6875 h -1.687532 v 1.6876 h 1.687532 v 1.6875 h 6.750129 v -1.6875 h 1.687569 v -1.6876 h -1.687532 v -1.6875 h 1.687532 v -1.6876 h -1.687532 v -1.6875 h 1.687532 v -1.6874 h -1.687532 z"
       id="path496"
       sodipodi:nodetypes="ccccccccccccccccccccccccccccc" />
  </g>
</svg>
